<svg xmlns="http://www.w3.org/2000/svg" xmlns:xlink="http://www.w3.org/1999/xlink" width="500" zoomAndPan="magnify" viewBox="0 0 375 374.999991" height="500" preserveAspectRatio="xMidYMid meet" version="1.0"><defs><clipPath id="4435f7802d"><path d="M 245 15.609375 L 329 15.609375 L 329 99 L 245 99 Z M 245 15.609375 " clip-rule="nonzero"/></clipPath><clipPath id="9a857c050e"><path d="M 126.578125 135.882812 L 248.851562 135.882812 L 248.851562 278.09375 L 126.578125 278.09375 Z M 126.578125 135.882812 " clip-rule="nonzero"/></clipPath></defs><path fill="#8c52ff" d="M 233.917969 104.835938 C 238.566406 112.46875 249.675781 119.121094 258.597656 119.621094 L 352.464844 124.871094 C 361.390625 125.371094 363.925781 131.324219 358.101562 138.105469 L 296.839844 209.410156 C 291.015625 216.1875 288.117188 228.804688 290.402344 237.449219 L 314.414062 328.335938 C 316.695312 336.976562 311.820312 341.230469 303.570312 337.785156 L 216.816406 301.5625 C 208.566406 298.117188 195.671875 299.261719 188.160156 304.101562 L 109.132812 355.023438 C 101.621094 359.867188 96.066406 356.539062 96.792969 347.632812 L 104.441406 253.941406 C 105.167969 245.03125 100.09375 233.121094 93.167969 227.46875 L 20.3125 168.054688 C 13.382812 162.40625 14.832031 156.097656 23.53125 154.035156 L 115.007812 132.351562 C 123.707031 130.292969 133.46875 121.785156 136.699219 113.453125 L 170.695312 25.808594 C 173.929688 17.476562 180.375 16.90625 185.027344 24.539062 Z M 233.917969 104.835938 " fill-opacity="1" fill-rule="nonzero"/><g clip-path="url(#4435f7802d)"><path fill="#8c52ff" d="M 328.417969 57.195312 C 294.265625 61.316406 290.925781 64.660156 286.796875 98.8125 C 282.675781 64.660156 279.332031 61.316406 245.175781 57.195312 C 279.332031 53.066406 282.675781 49.726562 286.796875 15.574219 C 290.925781 49.726562 294.265625 53.066406 328.417969 57.195312 Z M 328.417969 57.195312 " fill-opacity="1" fill-rule="nonzero"/></g><path fill="#8c52ff" d="M 94.871094 275.675781 C 60.71875 279.800781 57.378906 283.144531 53.25 317.292969 C 49.125 283.144531 45.785156 279.800781 11.628906 275.675781 C 45.785156 271.550781 49.125 268.207031 53.25 234.054688 C 57.378906 268.207031 60.71875 271.550781 94.871094 275.675781 Z M 94.871094 275.675781 " fill-opacity="1" fill-rule="nonzero"/><g clip-path="url(#9a857c050e)"><path fill="#ffffff" d="M 187.714844 135.882812 L 162.25 161.277344 L 187.714844 186.671875 L 187.714844 166.355469 L 213.175781 166.355469 C 221.683594 166.355469 228.453125 173.113281 228.453125 181.59375 L 228.453125 238.414062 C 222.558594 240.53125 218.269531 246.128906 218.269531 252.699219 C 218.269531 261.054688 225.171875 267.933594 233.546875 267.933594 C 241.925781 267.933594 248.824219 261.054688 248.824219 252.699219 C 248.824219 246.128906 244.539062 240.53125 238.640625 238.414062 L 238.640625 181.59375 C 238.640625 167.628906 227.179688 156.199219 213.175781 156.199219 L 187.714844 156.199219 Z M 141.878906 146.042969 C 133.503906 146.042969 126.601562 152.921875 126.601562 161.277344 C 126.601562 167.847656 130.890625 173.445312 136.789062 175.5625 L 136.789062 232.382812 C 136.789062 246.351562 148.246094 257.777344 162.25 257.777344 L 187.714844 257.777344 L 187.714844 278.09375 L 213.175781 252.699219 L 187.714844 227.304688 L 187.714844 247.621094 L 162.25 247.621094 C 153.746094 247.621094 146.972656 240.863281 146.972656 232.382812 L 146.972656 175.5625 C 152.871094 173.445312 157.160156 167.847656 157.160156 161.277344 C 157.160156 152.921875 150.257812 146.042969 141.878906 146.042969 Z M 141.878906 156.199219 C 144.753906 156.199219 146.972656 158.414062 146.972656 161.277344 C 146.972656 164.144531 144.753906 166.355469 141.878906 166.355469 C 139.007812 166.355469 136.789062 164.144531 136.789062 161.277344 C 136.789062 158.414062 139.007812 156.199219 141.878906 156.199219 Z M 233.546875 247.621094 C 236.421875 247.621094 238.640625 249.832031 238.640625 252.699219 C 238.640625 255.5625 236.421875 257.777344 233.546875 257.777344 C 230.675781 257.777344 228.453125 255.5625 228.453125 252.699219 C 228.453125 249.832031 230.675781 247.621094 233.546875 247.621094 Z M 233.546875 247.621094 " fill-opacity="1" fill-rule="nonzero"/></g></svg>