<svg xmlns="http://www.w3.org/2000/svg" xmlns:xlink="http://www.w3.org/1999/xlink" width="500" zoomAndPan="magnify" viewBox="0 0 375 374.999991" height="500" preserveAspectRatio="xMidYMid meet" version="1.0"><defs><g/><clipPath id="3216dc9c9c"><path d="M 220 38.046875 L 268 38.046875 L 268 85 L 220 85 Z M 220 38.046875 " clip-rule="nonzero"/></clipPath><clipPath id="0780f2a72d"><path d="M 153.121094 105.917969 L 222.121094 105.917969 L 222.121094 186.167969 L 153.121094 186.167969 Z M 153.121094 105.917969 " clip-rule="nonzero"/></clipPath></defs><path fill="#3d4b8d" d="M 213.695312 88.398438 C 216.316406 92.707031 222.585938 96.460938 227.621094 96.742188 L 280.589844 99.703125 C 285.628906 99.984375 287.058594 103.347656 283.769531 107.171875 L 249.203125 147.410156 C 245.914062 151.234375 244.28125 158.355469 245.566406 163.234375 L 259.121094 214.519531 C 260.40625 219.398438 257.65625 221.796875 253 219.851562 L 204.042969 199.414062 C 199.386719 197.46875 192.109375 198.113281 187.871094 200.847656 L 143.277344 229.582031 C 139.039062 232.3125 135.902344 230.4375 136.3125 225.410156 L 140.628906 172.539062 C 141.039062 167.511719 138.175781 160.789062 134.265625 157.601562 L 93.152344 124.074219 C 89.246094 120.886719 90.0625 117.324219 94.972656 116.160156 L 146.59375 103.925781 C 151.5 102.761719 157.007812 97.964844 158.832031 93.261719 L 178.015625 43.804688 C 179.84375 39.101562 183.480469 38.777344 186.105469 43.085938 Z M 213.695312 88.398438 " fill-opacity="1" fill-rule="nonzero"/><g clip-path="url(#3216dc9c9c)"><path fill="#3d4b8d" d="M 267.023438 61.511719 C 247.75 63.839844 245.863281 65.726562 243.535156 85 C 241.207031 65.726562 239.320312 63.839844 220.046875 61.511719 C 239.320312 59.183594 241.207031 57.296875 243.535156 38.027344 C 245.863281 57.296875 247.75 59.183594 267.023438 61.511719 Z M 267.023438 61.511719 " fill-opacity="1" fill-rule="nonzero"/></g><path fill="#3d4b8d" d="M 135.230469 184.804688 C 115.957031 187.132812 114.070312 189.019531 111.742188 208.289062 C 109.414062 189.019531 107.527344 187.132812 88.253906 184.804688 C 107.527344 182.476562 109.414062 180.589844 111.742188 161.316406 C 114.070312 180.589844 115.957031 182.476562 135.230469 184.804688 Z M 135.230469 184.804688 " fill-opacity="1" fill-rule="nonzero"/><g clip-path="url(#0780f2a72d)"><path fill="#ffffff" d="M 187.621094 105.917969 L 173.25 120.25 L 187.621094 134.578125 L 187.621094 123.113281 L 201.988281 123.113281 C 206.789062 123.113281 210.609375 126.925781 210.609375 131.714844 L 210.609375 163.777344 C 207.28125 164.972656 204.863281 168.128906 204.863281 171.839844 C 204.863281 176.554688 208.757812 180.4375 213.484375 180.4375 C 218.210938 180.4375 222.105469 176.554688 222.105469 171.839844 C 222.105469 168.128906 219.6875 164.972656 216.359375 163.777344 L 216.359375 131.714844 C 216.359375 123.832031 209.894531 117.382812 201.988281 117.382812 L 187.621094 117.382812 Z M 161.757812 111.652344 C 157.027344 111.652344 153.136719 115.535156 153.136719 120.25 C 153.136719 123.957031 155.554688 127.113281 158.882812 128.308594 L 158.882812 160.375 C 158.882812 168.253906 165.347656 174.703125 173.25 174.703125 L 187.621094 174.703125 L 187.621094 186.167969 L 201.988281 171.839844 L 187.621094 157.507812 L 187.621094 168.972656 L 173.25 168.972656 C 168.453125 168.972656 164.628906 165.160156 164.628906 160.375 L 164.628906 128.308594 C 167.957031 127.113281 170.378906 123.957031 170.378906 120.25 C 170.378906 115.535156 166.484375 111.652344 161.757812 111.652344 Z M 161.757812 117.382812 C 163.378906 117.382812 164.628906 118.632812 164.628906 120.25 C 164.628906 121.867188 163.378906 123.113281 161.757812 123.113281 C 160.136719 123.113281 158.882812 121.867188 158.882812 120.25 C 158.882812 118.632812 160.136719 117.382812 161.757812 117.382812 Z M 213.484375 168.972656 C 215.105469 168.972656 216.359375 170.222656 216.359375 171.839844 C 216.359375 173.453125 215.105469 174.703125 213.484375 174.703125 C 211.863281 174.703125 210.609375 173.453125 210.609375 171.839844 C 210.609375 170.222656 211.863281 168.972656 213.484375 168.972656 Z M 213.484375 168.972656 " fill-opacity="1" fill-rule="nonzero"/></g><g fill="#3d4b8d" fill-opacity="1"><g transform="translate(25.363966, 290.15954)"><g><path d="M 2.402344 -6.921875 C 2.402344 -2.402344 4.808594 0 9.328125 0 L 15.671875 0 C 20.144531 0 22.59375 -2.402344 22.59375 -6.921875 L 22.59375 -20.289062 C 22.59375 -20.816406 22.308594 -21.058594 21.824219 -21.058594 L 13.75 -21.058594 C 13.21875 -21.058594 12.980469 -20.816406 12.980469 -20.289062 L 12.980469 -15.480469 C 12.980469 -15 13.21875 -14.710938 13.75 -14.710938 L 16.25 -14.710938 L 16.25 -8.269531 C 16.25 -6.972656 15.578125 -6.347656 14.328125 -6.347656 L 10.863281 -6.347656 C 9.613281 -6.347656 8.941406 -6.972656 8.941406 -8.269531 L 8.941406 -30.191406 C 8.941406 -31.441406 9.566406 -32.113281 10.863281 -32.113281 L 14.328125 -32.113281 C 15.578125 -32.113281 16.25 -31.441406 16.25 -30.191406 L 16.25 -26.539062 C 16.25 -26.054688 16.488281 -25.769531 17.019531 -25.769531 L 21.824219 -25.769531 C 22.308594 -25.769531 22.59375 -26.054688 22.59375 -26.539062 L 22.59375 -31.539062 C 22.59375 -36.054688 20.144531 -38.460938 15.671875 -38.460938 L 9.328125 -38.460938 C 4.808594 -38.460938 2.402344 -36.054688 2.402344 -31.539062 Z M 2.402344 -6.921875 "/></g></g></g><g fill="#3d4b8d" fill-opacity="1"><g transform="translate(50.362907, 290.15954)"><g><path d="M 3.171875 0 C 2.644531 0 2.402344 -0.289062 2.402344 -0.769531 L 2.402344 -32.882812 C 2.402344 -33.363281 2.644531 -33.652344 3.171875 -33.652344 L 8.171875 -33.652344 C 8.652344 -33.652344 8.941406 -33.363281 8.941406 -32.882812 L 8.941406 -0.769531 C 8.941406 -0.289062 8.652344 0 8.171875 0 Z M 3.171875 0 "/></g></g></g><g fill="#3d4b8d" fill-opacity="1"><g transform="translate(61.708571, 290.15954)"><g><path d="M 19.902344 -33.652344 C 20.433594 -33.652344 20.671875 -33.363281 20.671875 -32.882812 L 20.671875 -28.074219 C 20.671875 -27.59375 20.433594 -27.304688 19.902344 -27.304688 L 14.328125 -27.304688 L 14.328125 -0.769531 C 14.328125 -0.242188 14.085938 0 13.558594 0 L 8.558594 0 C 8.078125 0 7.789062 -0.242188 7.789062 -0.769531 L 7.789062 -27.304688 L 2.210938 -27.304688 C 1.730469 -27.304688 1.441406 -27.59375 1.441406 -28.074219 L 1.441406 -32.882812 C 1.441406 -33.363281 1.730469 -33.652344 2.210938 -33.652344 Z M 19.902344 -33.652344 "/></g></g></g><g fill="#3d4b8d" fill-opacity="1"><g transform="translate(83.823006, 290.15954)"><g><path d="M 15.09375 -19.902344 L 8.941406 -19.902344 L 8.941406 -32.882812 C 8.941406 -33.363281 8.652344 -33.652344 8.171875 -33.652344 L 3.222656 -33.652344 C 2.644531 -33.652344 2.402344 -33.363281 2.402344 -32.882812 L 2.402344 -0.769531 C 2.402344 -0.289062 2.644531 0 3.222656 0 L 8.171875 0 C 8.652344 0 8.941406 -0.289062 8.941406 -0.769531 L 8.941406 -13.558594 L 15.09375 -13.558594 L 15.09375 -0.769531 C 15.09375 -0.289062 15.382812 0 15.863281 0 L 20.816406 0 C 21.394531 0 21.632812 -0.289062 21.632812 -0.769531 L 21.632812 -32.882812 C 21.632812 -33.363281 21.394531 -33.652344 20.816406 -33.652344 L 15.863281 -33.652344 C 15.382812 -33.652344 15.09375 -33.363281 15.09375 -32.882812 Z M 15.09375 -19.902344 "/></g></g></g><g fill="#3d4b8d" fill-opacity="1"><g transform="translate(107.860445, 290.15954)"><g><path d="M 16.25 -33.652344 C 15.71875 -33.652344 15.289062 -33.21875 15.289062 -32.691406 L 15.289062 -8.269531 C 15.289062 -6.972656 14.613281 -6.347656 13.363281 -6.347656 L 10.863281 -6.347656 C 9.613281 -6.347656 8.941406 -6.972656 8.941406 -8.269531 L 8.941406 -32.691406 C 8.941406 -33.21875 8.507812 -33.652344 7.980469 -33.652344 L 3.367188 -33.652344 C 2.835938 -33.652344 2.402344 -33.21875 2.402344 -32.691406 L 2.402344 -6.921875 C 2.402344 -2.402344 4.808594 0 9.328125 0 L 14.710938 0 C 19.230469 0 21.632812 -2.402344 21.632812 -6.921875 L 21.632812 -32.691406 C 21.632812 -33.21875 21.199219 -33.652344 20.671875 -33.652344 Z M 16.25 -33.652344 "/></g></g></g><g fill="#3d4b8d" fill-opacity="1"><g transform="translate(131.897885, 290.15954)"><g><path d="M 21.683594 -26.730469 C 21.683594 -31.25 19.230469 -33.652344 14.710938 -33.652344 L 3.171875 -33.652344 C 2.691406 -33.652344 2.402344 -33.410156 2.402344 -32.882812 L 2.402344 -0.769531 C 2.402344 -0.289062 2.691406 0 3.171875 0 L 14.710938 0 C 19.230469 0 21.683594 -2.402344 21.683594 -6.921875 L 21.683594 -13.316406 C 21.683594 -15.09375 20.382812 -16.441406 18.652344 -16.730469 L 18.652344 -16.828125 C 20.382812 -17.113281 21.683594 -18.460938 21.683594 -20.238281 Z M 15.578125 -21.824219 C 15.578125 -20.625 14.902344 -19.949219 13.652344 -19.949219 L 8.363281 -19.949219 L 8.363281 -27.59375 L 13.652344 -27.59375 C 14.953125 -27.59375 15.578125 -26.921875 15.578125 -25.671875 Z M 15.578125 -7.980469 C 15.578125 -6.683594 14.902344 -6.058594 13.652344 -6.058594 L 8.363281 -6.058594 L 8.363281 -13.605469 L 13.652344 -13.605469 C 14.953125 -13.605469 15.578125 -12.933594 15.578125 -11.683594 Z M 15.578125 -7.980469 "/></g></g></g><g fill="#3d4b8d" fill-opacity="1"><g transform="translate(155.98339, 290.15954)"><g/></g></g><g fill="#3d4b8d" fill-opacity="1"><g transform="translate(168.0021, 290.15954)"><g><path d="M 9.328125 -38.460938 C 4.855469 -38.460938 2.402344 -36.054688 2.402344 -31.539062 L 2.402344 -20.191406 C 2.402344 -19.277344 2.835938 -18.699219 3.703125 -18.414062 L 15.09375 -14.664062 L 15.09375 -8.269531 C 15.09375 -6.972656 14.421875 -6.347656 13.171875 -6.347656 L 10.863281 -6.347656 C 9.664062 -6.347656 8.941406 -6.972656 8.941406 -8.269531 L 8.941406 -11.96875 C 8.941406 -12.5 8.703125 -12.738281 8.171875 -12.738281 L 3.171875 -12.738281 C 2.691406 -12.738281 2.402344 -12.5 2.402344 -11.96875 L 2.402344 -6.921875 C 2.402344 -2.402344 4.855469 0 9.328125 0 L 14.710938 0 C 19.230469 0 21.632812 -2.402344 21.632812 -6.921875 L 21.632812 -18.027344 C 21.632812 -18.941406 21.199219 -19.46875 20.382812 -19.808594 L 8.941406 -23.558594 L 8.941406 -30.191406 C 8.941406 -31.441406 9.664062 -32.113281 10.863281 -32.113281 L 13.171875 -32.113281 C 14.46875 -32.113281 15.09375 -31.441406 15.09375 -30.191406 L 15.09375 -26.441406 C 15.09375 -25.960938 15.382812 -25.671875 15.863281 -25.671875 L 20.863281 -25.671875 C 21.394531 -25.671875 21.632812 -25.960938 21.632812 -26.441406 L 21.632812 -31.539062 C 21.632812 -36.054688 19.230469 -38.460938 14.710938 -38.460938 Z M 9.328125 -38.460938 "/></g></g></g><g fill="#3d4b8d" fill-opacity="1"><g transform="translate(192.039539, 290.15954)"><g><path d="M 19.902344 -33.652344 C 20.433594 -33.652344 20.671875 -33.363281 20.671875 -32.882812 L 20.671875 -28.074219 C 20.671875 -27.59375 20.433594 -27.304688 19.902344 -27.304688 L 14.328125 -27.304688 L 14.328125 -0.769531 C 14.328125 -0.242188 14.085938 0 13.558594 0 L 8.558594 0 C 8.078125 0 7.789062 -0.242188 7.789062 -0.769531 L 7.789062 -27.304688 L 2.210938 -27.304688 C 1.730469 -27.304688 1.441406 -27.59375 1.441406 -28.074219 L 1.441406 -32.882812 C 1.441406 -33.363281 1.730469 -33.652344 2.210938 -33.652344 Z M 19.902344 -33.652344 "/></g></g></g><g fill="#3d4b8d" fill-opacity="1"><g transform="translate(214.153975, 290.15954)"><g><path d="M 25.09375 0 C 25.671875 0 25.914062 -0.289062 25.769531 -0.816406 L 17.789062 -32.980469 C 17.691406 -33.460938 17.402344 -33.652344 16.96875 -33.652344 L 10.289062 -33.652344 C 9.855469 -33.652344 9.566406 -33.460938 9.472656 -32.980469 L 1.492188 -0.816406 C 1.347656 -0.289062 1.585938 0 2.117188 0 L 6.828125 0 C 7.257812 0 7.5 -0.242188 7.597656 -0.671875 L 9.085938 -6.730469 L 18.125 -6.730469 L 19.664062 -0.671875 C 19.757812 -0.242188 20 0 20.433594 0 Z M 16.632812 -12.308594 L 10.578125 -12.308594 L 13.605469 -25.382812 Z M 16.632812 -12.308594 "/></g></g></g><g fill="#3d4b8d" fill-opacity="1"><g transform="translate(241.412424, 290.15954)"><g><path d="M 21.632812 -26.730469 C 21.632812 -31.25 19.230469 -33.652344 14.710938 -33.652344 L 3.171875 -33.652344 C 2.691406 -33.652344 2.402344 -33.363281 2.402344 -32.882812 L 2.402344 -0.769531 C 2.402344 -0.289062 2.691406 0 3.171875 0 L 7.882812 0 C 8.363281 0 8.652344 -0.289062 8.652344 -0.769531 L 8.652344 -10.144531 L 12.933594 -10.144531 L 15.238281 -0.671875 C 15.335938 -0.242188 15.578125 0 16.058594 0 L 20.769531 0 C 21.296875 0 21.585938 -0.289062 21.441406 -0.867188 L 18.941406 -11.203125 C 20.71875 -12.308594 21.632812 -14.277344 21.632812 -17.066406 Z M 8.652344 -16.34375 L 8.652344 -27.449219 L 13.460938 -27.449219 C 14.710938 -27.449219 15.382812 -26.777344 15.382812 -25.527344 L 15.382812 -18.269531 C 15.382812 -17.019531 14.710938 -16.34375 13.460938 -16.34375 Z M 8.652344 -16.34375 "/></g></g></g><g fill="#3d4b8d" fill-opacity="1"><g transform="translate(265.449863, 290.15954)"><g/></g></g><g fill="#3d4b8d" fill-opacity="1"><g transform="translate(277.468573, 290.15954)"><g><path d="M 15.09375 -22.402344 L 8.941406 -22.402344 L 8.941406 -37.691406 C 8.941406 -38.171875 8.652344 -38.460938 8.171875 -38.460938 L 3.222656 -38.460938 C 2.644531 -38.460938 2.402344 -38.171875 2.402344 -37.691406 L 2.402344 -0.769531 C 2.402344 -0.289062 2.644531 0 3.222656 0 L 8.171875 0 C 8.652344 0 8.941406 -0.289062 8.941406 -0.769531 L 8.941406 -16.058594 L 15.09375 -16.058594 L 15.09375 -0.769531 C 15.09375 -0.289062 15.382812 0 15.863281 0 L 20.816406 0 C 21.394531 0 21.632812 -0.289062 21.632812 -0.769531 L 21.632812 -37.691406 C 21.632812 -38.171875 21.394531 -38.460938 20.816406 -38.460938 L 15.863281 -38.460938 C 15.382812 -38.460938 15.09375 -38.171875 15.09375 -37.691406 Z M 15.09375 -22.402344 "/></g></g></g><g fill="#3d4b8d" fill-opacity="1"><g transform="translate(301.506012, 290.15954)"><g><path d="M 16.25 -33.652344 C 15.71875 -33.652344 15.289062 -33.21875 15.289062 -32.691406 L 15.289062 -8.269531 C 15.289062 -6.972656 14.613281 -6.347656 13.363281 -6.347656 L 10.863281 -6.347656 C 9.613281 -6.347656 8.941406 -6.972656 8.941406 -8.269531 L 8.941406 -32.691406 C 8.941406 -33.21875 8.507812 -33.652344 7.980469 -33.652344 L 3.367188 -33.652344 C 2.835938 -33.652344 2.402344 -33.21875 2.402344 -32.691406 L 2.402344 -6.921875 C 2.402344 -2.402344 4.808594 0 9.328125 0 L 14.710938 0 C 19.230469 0 21.632812 -2.402344 21.632812 -6.921875 L 21.632812 -32.691406 C 21.632812 -33.21875 21.199219 -33.652344 20.671875 -33.652344 Z M 16.25 -33.652344 "/></g></g></g><g fill="#3d4b8d" fill-opacity="1"><g transform="translate(325.543451, 290.15954)"><g><path d="M 21.683594 -26.730469 C 21.683594 -31.25 19.230469 -33.652344 14.710938 -33.652344 L 3.171875 -33.652344 C 2.691406 -33.652344 2.402344 -33.410156 2.402344 -32.882812 L 2.402344 -0.769531 C 2.402344 -0.289062 2.691406 0 3.171875 0 L 14.710938 0 C 19.230469 0 21.683594 -2.402344 21.683594 -6.921875 L 21.683594 -13.316406 C 21.683594 -15.09375 20.382812 -16.441406 18.652344 -16.730469 L 18.652344 -16.828125 C 20.382812 -17.113281 21.683594 -18.460938 21.683594 -20.238281 Z M 15.578125 -21.824219 C 15.578125 -20.625 14.902344 -19.949219 13.652344 -19.949219 L 8.363281 -19.949219 L 8.363281 -27.59375 L 13.652344 -27.59375 C 14.953125 -27.59375 15.578125 -26.921875 15.578125 -25.671875 Z M 15.578125 -7.980469 C 15.578125 -6.683594 14.902344 -6.058594 13.652344 -6.058594 L 8.363281 -6.058594 L 8.363281 -13.605469 L 13.652344 -13.605469 C 14.953125 -13.605469 15.578125 -12.933594 15.578125 -11.683594 Z M 15.578125 -7.980469 "/></g></g></g></svg>