<svg xmlns="http://www.w3.org/2000/svg" xmlns:xlink="http://www.w3.org/1999/xlink" width="230" zoomAndPan="magnify" viewBox="0 0 172.5 30.750001" height="41" preserveAspectRatio="xMidYMid meet" version="1.0"><defs><g/><clipPath id="d1ef348aa0"><path d="M 0.449219 0 L 31.90625 0 L 31.90625 30.503906 L 0.449219 30.503906 Z M 0.449219 0 " clip-rule="nonzero"/></clipPath><clipPath id="38906a3603"><path d="M 0.449219 19 L 8 19 L 8 27 L 0.449219 27 Z M 0.449219 19 " clip-rule="nonzero"/></clipPath><clipPath id="d56aa5e0ea"><path d="M 10.734375 10.703125 L 21.613281 10.703125 L 21.613281 23.355469 L 10.734375 23.355469 Z M 10.734375 10.703125 " clip-rule="nonzero"/></clipPath></defs><g clip-path="url(#d1ef348aa0)"><path fill="#3d4b8d" d="M 20.285156 7.9375 C 20.699219 8.617188 21.6875 9.210938 22.480469 9.253906 L 30.835938 9.722656 C 31.628906 9.765625 31.855469 10.296875 31.335938 10.898438 L 25.882812 17.246094 C 25.367188 17.847656 25.109375 18.972656 25.3125 19.738281 L 27.449219 27.828125 C 27.652344 28.597656 27.21875 28.972656 26.484375 28.667969 L 18.761719 25.445312 C 18.03125 25.136719 16.882812 25.238281 16.214844 25.671875 L 9.183594 30.203125 C 8.511719 30.632812 8.019531 30.335938 8.082031 29.542969 L 8.765625 21.207031 C 8.828125 20.414062 8.378906 19.355469 7.761719 18.851562 L 1.277344 13.566406 C 0.660156 13.0625 0.789062 12.5 1.566406 12.316406 L 9.703125 10.386719 C 10.480469 10.203125 11.347656 9.449219 11.636719 8.707031 L 14.660156 0.90625 C 14.949219 0.167969 15.519531 0.113281 15.933594 0.792969 Z M 20.285156 7.9375 " fill-opacity="1" fill-rule="nonzero"/></g><path fill="#3d4b8d" d="M 28.695312 3.699219 C 25.65625 4.066406 25.359375 4.363281 24.992188 7.402344 C 24.625 4.363281 24.328125 4.066406 21.289062 3.699219 C 24.328125 3.332031 24.625 3.035156 24.992188 -0.00390625 C 25.359375 3.035156 25.65625 3.332031 28.695312 3.699219 Z M 28.695312 3.699219 " fill-opacity="1" fill-rule="nonzero"/><g clip-path="url(#38906a3603)"><path fill="#3d4b8d" d="M 7.914062 23.140625 C 4.875 23.507812 4.578125 23.804688 4.210938 26.84375 C 3.84375 23.804688 3.542969 23.507812 0.503906 23.140625 C 3.542969 22.773438 3.84375 22.476562 4.210938 19.4375 C 4.578125 22.476562 4.875 22.773438 7.914062 23.140625 Z M 7.914062 23.140625 " fill-opacity="1" fill-rule="nonzero"/></g><g clip-path="url(#d56aa5e0ea)"><path fill="#ffffff" d="M 16.175781 10.703125 L 13.910156 12.960938 L 16.175781 15.222656 L 16.175781 13.414062 L 18.441406 13.414062 C 19.195312 13.414062 19.800781 14.015625 19.800781 14.769531 L 19.800781 19.824219 C 19.273438 20.015625 18.894531 20.511719 18.894531 21.097656 C 18.894531 21.839844 19.507812 22.453125 20.253906 22.453125 C 20.996094 22.453125 21.613281 21.839844 21.613281 21.097656 C 21.613281 20.511719 21.230469 20.015625 20.707031 19.824219 L 20.707031 14.769531 C 20.707031 13.527344 19.6875 12.511719 18.441406 12.511719 L 16.175781 12.511719 Z M 12.097656 11.605469 C 11.351562 11.605469 10.734375 12.21875 10.734375 12.960938 C 10.734375 13.546875 11.117188 14.042969 11.644531 14.234375 L 11.644531 19.289062 C 11.644531 20.53125 12.664062 21.546875 13.910156 21.546875 L 16.175781 21.546875 L 16.175781 23.355469 L 18.441406 21.097656 L 16.175781 18.835938 L 16.175781 20.644531 L 13.910156 20.644531 C 13.152344 20.644531 12.550781 20.042969 12.550781 19.289062 L 12.550781 14.234375 C 13.074219 14.042969 13.457031 13.546875 13.457031 12.960938 C 13.457031 12.21875 12.839844 11.605469 12.097656 11.605469 Z M 12.097656 12.511719 C 12.351562 12.511719 12.550781 12.707031 12.550781 12.960938 C 12.550781 13.21875 12.351562 13.414062 12.097656 13.414062 C 11.839844 13.414062 11.644531 13.21875 11.644531 12.960938 C 11.644531 12.707031 11.839844 12.511719 12.097656 12.511719 Z M 20.253906 20.644531 C 20.507812 20.644531 20.707031 20.839844 20.707031 21.097656 C 20.707031 21.351562 20.507812 21.546875 20.253906 21.546875 C 19.996094 21.546875 19.800781 21.351562 19.800781 21.097656 C 19.800781 20.839844 19.996094 20.644531 20.253906 20.644531 Z M 20.253906 20.644531 " fill-opacity="1" fill-rule="nonzero"/></g><g fill="#3d4b8d" fill-opacity="1"><g transform="translate(32.969959, 23.452661)"><g><path d="M 1.019531 -2.9375 C 1.019531 -1.019531 2.039062 0 3.957031 0 L 6.648438 0 C 8.546875 0 9.585938 -1.019531 9.585938 -2.9375 L 9.585938 -8.605469 C 9.585938 -8.832031 9.460938 -8.933594 9.257812 -8.933594 L 5.832031 -8.933594 C 5.609375 -8.933594 5.507812 -8.832031 5.507812 -8.605469 L 5.507812 -6.566406 C 5.507812 -6.363281 5.609375 -6.242188 5.832031 -6.242188 L 6.894531 -6.242188 L 6.894531 -3.507812 C 6.894531 -2.957031 6.609375 -2.691406 6.078125 -2.691406 L 4.609375 -2.691406 C 4.078125 -2.691406 3.792969 -2.957031 3.792969 -3.507812 L 3.792969 -12.808594 C 3.792969 -13.335938 4.058594 -13.621094 4.609375 -13.621094 L 6.078125 -13.621094 C 6.609375 -13.621094 6.894531 -13.335938 6.894531 -12.808594 L 6.894531 -11.257812 C 6.894531 -11.054688 6.996094 -10.929688 7.21875 -10.929688 L 9.257812 -10.929688 C 9.460938 -10.929688 9.585938 -11.054688 9.585938 -11.257812 L 9.585938 -13.378906 C 9.585938 -15.296875 8.546875 -16.316406 6.648438 -16.316406 L 3.957031 -16.316406 C 2.039062 -16.316406 1.019531 -15.296875 1.019531 -13.378906 Z M 1.019531 -2.9375 "/></g></g></g><g fill="#3d4b8d" fill-opacity="1"><g transform="translate(43.574633, 23.452661)"><g><path d="M 1.347656 0 C 1.121094 0 1.019531 -0.121094 1.019531 -0.328125 L 1.019531 -13.949219 C 1.019531 -14.152344 1.121094 -14.277344 1.347656 -14.277344 L 3.46875 -14.277344 C 3.671875 -14.277344 3.792969 -14.152344 3.792969 -13.949219 L 3.792969 -0.328125 C 3.792969 -0.121094 3.671875 0 3.46875 0 Z M 1.347656 0 "/></g></g></g><g fill="#3d4b8d" fill-opacity="1"><g transform="translate(48.38752, 23.452661)"><g><path d="M 8.441406 -14.277344 C 8.667969 -14.277344 8.769531 -14.152344 8.769531 -13.949219 L 8.769531 -11.910156 C 8.769531 -11.707031 8.667969 -11.582031 8.441406 -11.582031 L 6.078125 -11.582031 L 6.078125 -0.328125 C 6.078125 -0.101562 5.976562 0 5.75 0 L 3.628906 0 C 3.425781 0 3.304688 -0.101562 3.304688 -0.328125 L 3.304688 -11.582031 L 0.9375 -11.582031 C 0.734375 -11.582031 0.613281 -11.707031 0.613281 -11.910156 L 0.613281 -13.949219 C 0.613281 -14.152344 0.734375 -14.277344 0.9375 -14.277344 Z M 8.441406 -14.277344 "/></g></g></g><g fill="#3d4b8d" fill-opacity="1"><g transform="translate(57.768573, 23.452661)"><g><path d="M 6.402344 -8.441406 L 3.792969 -8.441406 L 3.792969 -13.949219 C 3.792969 -14.152344 3.671875 -14.277344 3.46875 -14.277344 L 1.367188 -14.277344 C 1.121094 -14.277344 1.019531 -14.152344 1.019531 -13.949219 L 1.019531 -0.328125 C 1.019531 -0.121094 1.121094 0 1.367188 0 L 3.46875 0 C 3.671875 0 3.792969 -0.121094 3.792969 -0.328125 L 3.792969 -5.75 L 6.402344 -5.75 L 6.402344 -0.328125 C 6.402344 -0.121094 6.527344 0 6.730469 0 L 8.832031 0 C 9.074219 0 9.175781 -0.121094 9.175781 -0.328125 L 9.175781 -13.949219 C 9.175781 -14.152344 9.074219 -14.277344 8.832031 -14.277344 L 6.730469 -14.277344 C 6.527344 -14.277344 6.402344 -14.152344 6.402344 -13.949219 Z M 6.402344 -8.441406 "/></g></g></g><g fill="#3d4b8d" fill-opacity="1"><g transform="translate(67.965374, 23.452661)"><g><path d="M 6.894531 -14.277344 C 6.667969 -14.277344 6.484375 -14.09375 6.484375 -13.867188 L 6.484375 -3.507812 C 6.484375 -2.957031 6.199219 -2.691406 5.667969 -2.691406 L 4.609375 -2.691406 C 4.078125 -2.691406 3.792969 -2.957031 3.792969 -3.507812 L 3.792969 -13.867188 C 3.792969 -14.09375 3.609375 -14.277344 3.386719 -14.277344 L 1.425781 -14.277344 C 1.203125 -14.277344 1.019531 -14.09375 1.019531 -13.867188 L 1.019531 -2.9375 C 1.019531 -1.019531 2.039062 0 3.957031 0 L 6.242188 0 C 8.15625 0 9.175781 -1.019531 9.175781 -2.9375 L 9.175781 -13.867188 C 9.175781 -14.09375 8.992188 -14.277344 8.769531 -14.277344 Z M 6.894531 -14.277344 "/></g></g></g><g fill="#3d4b8d" fill-opacity="1"><g transform="translate(78.162174, 23.452661)"><g><path d="M 9.199219 -11.339844 C 9.199219 -13.253906 8.15625 -14.277344 6.242188 -14.277344 L 1.347656 -14.277344 C 1.140625 -14.277344 1.019531 -14.171875 1.019531 -13.949219 L 1.019531 -0.328125 C 1.019531 -0.121094 1.140625 0 1.347656 0 L 6.242188 0 C 8.15625 0 9.199219 -1.019531 9.199219 -2.9375 L 9.199219 -5.648438 C 9.199219 -6.402344 8.648438 -6.976562 7.914062 -7.097656 L 7.914062 -7.136719 C 8.648438 -7.261719 9.199219 -7.832031 9.199219 -8.585938 Z M 6.609375 -9.257812 C 6.609375 -8.75 6.320312 -8.464844 5.792969 -8.464844 L 3.546875 -8.464844 L 3.546875 -11.707031 L 5.792969 -11.707031 C 6.34375 -11.707031 6.609375 -11.421875 6.609375 -10.890625 Z M 6.609375 -3.386719 C 6.609375 -2.835938 6.320312 -2.570312 5.792969 -2.570312 L 3.546875 -2.570312 L 3.546875 -5.769531 L 5.792969 -5.769531 C 6.34375 -5.769531 6.609375 -5.484375 6.609375 -4.957031 Z M 6.609375 -3.386719 "/></g></g></g><g fill="#3d4b8d" fill-opacity="1"><g transform="translate(88.379365, 23.452661)"><g/></g></g><g fill="#3d4b8d" fill-opacity="1"><g transform="translate(93.477761, 23.452661)"><g><path d="M 3.957031 -16.316406 C 2.058594 -16.316406 1.019531 -15.296875 1.019531 -13.378906 L 1.019531 -8.566406 C 1.019531 -8.179688 1.203125 -7.933594 1.570312 -7.8125 L 6.402344 -6.21875 L 6.402344 -3.507812 C 6.402344 -2.957031 6.117188 -2.691406 5.585938 -2.691406 L 4.609375 -2.691406 C 4.097656 -2.691406 3.792969 -2.957031 3.792969 -3.507812 L 3.792969 -5.078125 C 3.792969 -5.300781 3.691406 -5.40625 3.46875 -5.40625 L 1.347656 -5.40625 C 1.140625 -5.40625 1.019531 -5.300781 1.019531 -5.078125 L 1.019531 -2.9375 C 1.019531 -1.019531 2.058594 0 3.957031 0 L 6.242188 0 C 8.15625 0 9.175781 -1.019531 9.175781 -2.9375 L 9.175781 -7.648438 C 9.175781 -8.035156 8.992188 -8.257812 8.648438 -8.402344 L 3.792969 -9.992188 L 3.792969 -12.808594 C 3.792969 -13.335938 4.097656 -13.621094 4.609375 -13.621094 L 5.585938 -13.621094 C 6.136719 -13.621094 6.402344 -13.335938 6.402344 -12.808594 L 6.402344 -11.214844 C 6.402344 -11.011719 6.527344 -10.890625 6.730469 -10.890625 L 8.851562 -10.890625 C 9.074219 -10.890625 9.175781 -11.011719 9.175781 -11.214844 L 9.175781 -13.378906 C 9.175781 -15.296875 8.15625 -16.316406 6.242188 -16.316406 Z M 3.957031 -16.316406 "/></g></g></g><g fill="#3d4b8d" fill-opacity="1"><g transform="translate(103.674562, 23.452661)"><g><path d="M 8.441406 -14.277344 C 8.667969 -14.277344 8.769531 -14.152344 8.769531 -13.949219 L 8.769531 -11.910156 C 8.769531 -11.707031 8.667969 -11.582031 8.441406 -11.582031 L 6.078125 -11.582031 L 6.078125 -0.328125 C 6.078125 -0.101562 5.976562 0 5.75 0 L 3.628906 0 C 3.425781 0 3.304688 -0.101562 3.304688 -0.328125 L 3.304688 -11.582031 L 0.9375 -11.582031 C 0.734375 -11.582031 0.613281 -11.707031 0.613281 -11.910156 L 0.613281 -13.949219 C 0.613281 -14.152344 0.734375 -14.277344 0.9375 -14.277344 Z M 8.441406 -14.277344 "/></g></g></g><g fill="#3d4b8d" fill-opacity="1"><g transform="translate(113.055615, 23.452661)"><g><path d="M 10.644531 0 C 10.890625 0 10.992188 -0.121094 10.929688 -0.347656 L 7.546875 -13.988281 C 7.503906 -14.195312 7.382812 -14.277344 7.199219 -14.277344 L 4.363281 -14.277344 C 4.179688 -14.277344 4.058594 -14.195312 4.015625 -13.988281 L 0.632812 -0.347656 C 0.570312 -0.121094 0.671875 0 0.898438 0 L 2.894531 0 C 3.078125 0 3.179688 -0.101562 3.222656 -0.285156 L 3.855469 -2.855469 L 7.6875 -2.855469 L 8.339844 -0.285156 C 8.382812 -0.101562 8.484375 0 8.667969 0 Z M 7.054688 -5.222656 L 4.488281 -5.222656 L 5.769531 -10.769531 Z M 7.054688 -5.222656 "/></g></g></g><g fill="#3d4b8d" fill-opacity="1"><g transform="translate(124.618784, 23.452661)"><g><path d="M 9.175781 -11.339844 C 9.175781 -13.253906 8.15625 -14.277344 6.242188 -14.277344 L 1.347656 -14.277344 C 1.140625 -14.277344 1.019531 -14.152344 1.019531 -13.949219 L 1.019531 -0.328125 C 1.019531 -0.121094 1.140625 0 1.347656 0 L 3.34375 0 C 3.546875 0 3.671875 -0.121094 3.671875 -0.328125 L 3.671875 -4.304688 L 5.484375 -4.304688 L 6.464844 -0.285156 C 6.503906 -0.101562 6.609375 0 6.8125 0 L 8.808594 0 C 9.035156 0 9.15625 -0.121094 9.09375 -0.367188 L 8.035156 -4.75 C 8.789062 -5.222656 9.175781 -6.058594 9.175781 -7.238281 Z M 3.671875 -6.933594 L 3.671875 -11.644531 L 5.710938 -11.644531 C 6.242188 -11.644531 6.527344 -11.359375 6.527344 -10.828125 L 6.527344 -7.75 C 6.527344 -7.21875 6.242188 -6.933594 5.710938 -6.933594 Z M 3.671875 -6.933594 "/></g></g></g><g fill="#3d4b8d" fill-opacity="1"><g transform="translate(134.815585, 23.452661)"><g/></g></g><g fill="#3d4b8d" fill-opacity="1"><g transform="translate(139.913981, 23.452661)"><g><path d="M 6.402344 -9.503906 L 3.792969 -9.503906 L 3.792969 -15.988281 C 3.792969 -16.191406 3.671875 -16.316406 3.46875 -16.316406 L 1.367188 -16.316406 C 1.121094 -16.316406 1.019531 -16.191406 1.019531 -15.988281 L 1.019531 -0.328125 C 1.019531 -0.121094 1.121094 0 1.367188 0 L 3.46875 0 C 3.671875 0 3.792969 -0.121094 3.792969 -0.328125 L 3.792969 -6.8125 L 6.402344 -6.8125 L 6.402344 -0.328125 C 6.402344 -0.121094 6.527344 0 6.730469 0 L 8.832031 0 C 9.074219 0 9.175781 -0.121094 9.175781 -0.328125 L 9.175781 -15.988281 C 9.175781 -16.191406 9.074219 -16.316406 8.832031 -16.316406 L 6.730469 -16.316406 C 6.527344 -16.316406 6.402344 -16.191406 6.402344 -15.988281 Z M 6.402344 -9.503906 "/></g></g></g><g fill="#3d4b8d" fill-opacity="1"><g transform="translate(150.110782, 23.452661)"><g><path d="M 6.894531 -14.277344 C 6.667969 -14.277344 6.484375 -14.09375 6.484375 -13.867188 L 6.484375 -3.507812 C 6.484375 -2.957031 6.199219 -2.691406 5.667969 -2.691406 L 4.609375 -2.691406 C 4.078125 -2.691406 3.792969 -2.957031 3.792969 -3.507812 L 3.792969 -13.867188 C 3.792969 -14.09375 3.609375 -14.277344 3.386719 -14.277344 L 1.425781 -14.277344 C 1.203125 -14.277344 1.019531 -14.09375 1.019531 -13.867188 L 1.019531 -2.9375 C 1.019531 -1.019531 2.039062 0 3.957031 0 L 6.242188 0 C 8.15625 0 9.175781 -1.019531 9.175781 -2.9375 L 9.175781 -13.867188 C 9.175781 -14.09375 8.992188 -14.277344 8.769531 -14.277344 Z M 6.894531 -14.277344 "/></g></g></g><g fill="#3d4b8d" fill-opacity="1"><g transform="translate(160.307582, 23.452661)"><g><path d="M 9.199219 -11.339844 C 9.199219 -13.253906 8.15625 -14.277344 6.242188 -14.277344 L 1.347656 -14.277344 C 1.140625 -14.277344 1.019531 -14.171875 1.019531 -13.949219 L 1.019531 -0.328125 C 1.019531 -0.121094 1.140625 0 1.347656 0 L 6.242188 0 C 8.15625 0 9.199219 -1.019531 9.199219 -2.9375 L 9.199219 -5.648438 C 9.199219 -6.402344 8.648438 -6.976562 7.914062 -7.097656 L 7.914062 -7.136719 C 8.648438 -7.261719 9.199219 -7.832031 9.199219 -8.585938 Z M 6.609375 -9.257812 C 6.609375 -8.75 6.320312 -8.464844 5.792969 -8.464844 L 3.546875 -8.464844 L 3.546875 -11.707031 L 5.792969 -11.707031 C 6.34375 -11.707031 6.609375 -11.421875 6.609375 -10.890625 Z M 6.609375 -3.386719 C 6.609375 -2.835938 6.320312 -2.570312 5.792969 -2.570312 L 3.546875 -2.570312 L 3.546875 -5.769531 L 5.792969 -5.769531 C 6.34375 -5.769531 6.609375 -5.484375 6.609375 -4.957031 Z M 6.609375 -3.386719 "/></g></g></g></svg>